<?xml version="1.0" encoding="UTF-8"?>
<svg xmlns="http://www.w3.org/2000/svg" viewBox="0 0 104 84">
  <path fill="black" transform="translate(0 75)" d="M27.7344-0.683594C39.3555-0.683594 48.6816-14.5508 48.6816-35.2539C48.6816-55.9082 39.3555-69.7754 27.7344-69.7754C16.7969-69.7754 7.95898-57.666 6.83594-39.1602C8.69141-42.6758 12.207-44.7754 16.7969-44.7754C23.6328-44.7754 28.1738-39.9902 28.1738-32.9102C28.1738-25.7324 23.6328-20.9961 16.7969-20.9961C12.6953-20.9961 9.42383-22.6562 7.4707-25.5371C9.86328-10.3027 17.9688-0.683594 27.7344-0.683594ZM13.623-34.4238C15.0391-34.1309 16.3574-35.4492 16.6992-37.207C17.041-38.9648 16.2109-40.625 14.7461-40.918C13.3789-41.1621 11.8652-39.8926 11.5723-38.1348C11.2793-36.3281 12.207-34.668 13.623-34.4238ZM76.123-0.683594C87.793-0.683594 97.1191-14.5508 97.1191-35.2539C97.1191-55.9082 87.793-69.7754 76.123-69.7754C65.2344-69.7754 56.3965-57.666 55.2246-39.1602C57.1289-42.6758 60.5957-44.7754 65.1855-44.7754C72.0703-44.7754 76.5625-39.9902 76.5625-32.9102C76.5625-25.7324 72.0703-20.9961 65.1855-20.9961C61.084-20.9961 57.8613-22.6562 55.8594-25.5371C58.3008-10.3027 66.4062-0.683594 76.123-0.683594ZM62.0117-34.4238C63.4277-34.1309 64.7949-35.4492 65.1367-37.207C65.4785-38.9648 64.5996-40.6738 63.1348-40.918C61.7676-41.1621 60.3027-39.8926 60.0098-38.1348C59.668-36.3281 60.5957-34.7168 62.0117-34.4238Z"/>
</svg>
