<?xml version="1.0" encoding="UTF-8"?>
<svg xmlns="http://www.w3.org/2000/svg" viewBox="0 0 119.5784 78.8555" fill="#ffffff">
  <g transform="translate(-8.7656 76.9766)">
  <path d="M25.9766 0.878906L93.0664 0.878906C103.467 0.878906 109.277-4.93164 109.277-15.332L109.277-38.7207C109.277-49.1211 103.467-54.8828 93.0664-54.8828L25.9766-54.8828C15.5762-54.8828 9.76562-49.1211 9.76562-38.7207L9.76562-15.332C9.76562-4.93164 15.5762 0.878906 25.9766 0.878906ZM16.7969-15.332L16.7969-38.7207C16.7969-44.5312 20.1172-47.8516 25.9766-47.8516L93.0664-47.8516C98.9258-47.8516 102.246-44.5312 102.246-38.7207L102.246-15.332C102.246-9.47266 98.9258-6.20117 93.0664-6.20117L25.9766-6.20117C20.1172-6.20117 16.7969-9.47266 16.7969-15.332Z"/>
  <path d="M85.5469-28.2227L119.824-62.4512L113.721-68.5059L79.4922-34.2773L76.4648-26.9043C76.1719-26.0742 77.002-25.0977 77.9297-25.4395ZM122.705-65.2832L125.83-68.457C127.295-69.9219 127.344-72.2656 125.879-73.6328L124.707-74.707C123.34-75.9277 121.143-75.9766 119.775-74.5605L116.602-71.3867Z"/>
  <path d="M64.3555-21.4844C67.5293-21.4844 70.1172-24.1211 70.1172-27.2949C70.1172-30.4688 67.5293-33.0566 64.3555-33.0566C61.1816-33.0566 58.5449-30.4688 58.5449-27.2949C58.5449-24.1211 61.1816-21.4844 64.3555-21.4844Z"/>
  <path d="M47.4609-21.4844C50.6348-21.4844 53.2227-24.1211 53.2227-27.2949C53.2227-30.4688 50.6348-33.0566 47.4609-33.0566C44.2871-33.0566 41.6992-30.4688 41.6992-27.2949C41.6992-24.1211 44.2871-21.4844 47.4609-21.4844Z"/>
  <path d="M30.6152-21.4844C33.7891-21.4844 36.377-24.1211 36.377-27.2949C36.377-30.4688 33.7891-33.0566 30.6152-33.0566C27.4414-33.0566 24.8047-30.4688 24.8047-27.2949C24.8047-24.1211 27.4414-21.4844 30.6152-21.4844Z"/>
  </g>
</svg>
